<?xml version="1.0" encoding="UTF-8" standalone="no"?>
<svg
   xmlns:dc="http://purl.org/dc/elements/1.1/"
   xmlns:cc="http://creativecommons.org/ns#"
   xmlns:rdf="http://www.w3.org/1999/02/22-rdf-syntax-ns#"
   xmlns:svg="http://www.w3.org/2000/svg"
   xmlns="http://www.w3.org/2000/svg"
   viewBox="0 0 250.28876 100.9815"
   height="100.9815"
   width="250.28876"
   xml:space="preserve"
   version="1.1"
   id="svg3355"><metadata
     id="metadata3361"><rdf:RDF><cc:Work
         rdf:about=""><dc:format>image/svg+xml</dc:format><dc:type
           rdf:resource="http://purl.org/dc/dcmitype/StillImage" /><dc:title></dc:title></cc:Work></rdf:RDF></metadata><defs
     id="defs3359"><clipPath
       id="clipPath3369"
       clipPathUnits="userSpaceOnUse"><path
         id="path3371"
         d="m 0,80.785 200.231,0 L 200.231,0 0,0 0,80.785 Z" /></clipPath></defs><g
     transform="matrix(1.25,0,0,-1.25,0,100.9815)"
     id="g3363"><g
       id="g3365"><g
         clip-path="url(#clipPath3369)"
         id="g3367"><g
           transform="translate(188.4014,18.4756)"
           id="g3373"><path
             id="path3375"
             style="fill:#231f20;fill-opacity:1;fill-rule:nonzero;stroke:none"
             d="M 0,0 C -11.427,-1.277 -21.308,-3.025 -20.232,-6.654 -18.081,-13.578 -3.226,-15.124 0,0 M 9.41,0.94 C 7.864,0.739 6.251,0.604 4.705,0.471 l 0,-0.068 c -3.024,-21.576 -32.801,-25.138 -33.541,-8.2 -0.335,7.662 14.52,9.88 29.307,11.292 0.537,13.779 -19.915,-7.042 -27.064,5.716 -6.285,11.216 18.325,22.289 20.951,20.009 8.063,-7.003 4.263,-8.223 -1.726,-10.358 -11.888,-4.237 -7.255,-5.103 -5.651,-4.63 C -3.538,17.033 4.975,15.526 4.907,3.898 6.521,4.033 8.065,4.101 9.611,4.234 12.502,4.503 12.704,1.21 9.41,0.94" /></g><g
           transform="translate(147.3896,24.9526)"
           id="g3377"><path
             id="path3379"
             style="fill:#231f20;fill-opacity:1;fill-rule:nonzero;stroke:none"
             d="M 0,0 C -0.854,0.047 -0.881,7.502 0.142,14.521 1.398,23.16 15.088,18.694 11.529,16.892 7.803,15.003 5.982,6.058 3.682,1.874 2.887,0.43 0.418,-0.023 0,0" /></g><g
           transform="translate(52.7363,54.6689)"
           id="g3381"><path
             id="path3383"
             style="fill:#231f20;fill-opacity:1;fill-rule:nonzero;stroke:none"
             d="m 0,0 c 2.975,-6.047 -6.184,-10.153 -10.386,-5.618 -1.751,1.932 -0.947,5.666 3.302,7.695 C -4.959,3.118 -1.983,4.061 0,0" /></g><g
           transform="translate(71.4678,57.3301)"
           id="g3385"><path
             id="path3387"
             style="fill:#231f20;fill-opacity:1;fill-rule:nonzero;stroke:none"
             d="m 0,0 c 3.239,-6.582 -6.738,-11.054 -11.31,-6.115 -1.907,2.105 -1.031,6.166 3.598,8.377 C -5.399,3.393 -2.16,4.419 0,0" /></g><g
           transform="translate(36.1748,4.1426)"
           id="g3389"><path
             id="path3391"
             style="fill:#231f20;fill-opacity:1;fill-rule:nonzero;stroke:none"
             d="m 0,0 c -9.917,-6.634 -17.808,-5.168 -15.294,13.479 1.815,13.547 -1.187,14.315 -3.911,11.731 -3.562,-3.351 -5.796,-12.08 -5.866,-20.392 0.349,-2.094 0.768,-4.12 1.257,-5.935 0.419,-2.026 -6.145,-4.12 -9.986,-1.257 -1.327,0.978 -2.375,10.824 -2.375,24.163 0,10.964 1.467,18.506 2.794,18.855 10.056,2.724 11.662,-1.676 9.497,-9.916 -0.908,-3.422 -1.466,-6.705 -1.746,-9.847 2.095,5.796 5.098,10.545 8.52,12.64 9.288,5.796 17.04,3.073 15.573,-8.45 C -4.051,4.47 -4.26,1.677 -2.025,3.282 0.768,5.238 2.583,1.746 0,0" /></g><g
           transform="translate(51.8242,15.9395)"
           id="g3393"><path
             id="path3395"
             style="fill:#231f20;fill-opacity:1;fill-rule:nonzero;stroke:none"
             d="M 0,0 C 7.333,5.168 9.776,16.551 7.751,19.764 5.586,23.116 1.396,17.878 -0.07,5.168 -0.21,3.353 -0.21,1.606 0,0 m 17.04,-9.218 c -2.724,-4.33 -9.777,-6.425 -16.552,-5.656 -9.707,1.047 -15.713,9.637 -13.408,22.486 2.514,13.898 22.627,22.766 29.051,12.85 C 20.811,13.269 13.408,0.56 1.606,-4.12 1.396,-4.189 1.187,-4.26 0.978,-4.329 c 2.444,-6.425 8.24,-9.288 13.827,-2.934 2.653,2.934 4.539,1.676 2.235,-1.955" /></g><g
           transform="translate(104.0693,24.8604)"
           id="g3397"><path
             id="path3399"
             style="fill:#231f20;fill-opacity:1;fill-rule:nonzero;stroke:none"
             d="m 0,0 c -2,-3.114 -4.889,-5.447 -7.473,-6.285 -3.003,-0.908 -6.494,-0.069 -6.494,3.352 0,1.257 1.117,4.19 4.539,5.866 -0.21,2.375 -1.746,3.003 -2.863,2.095 -4.19,-3.212 -9.288,-15.223 -7.961,-23.882 0.069,-0.21 0.069,-0.42 0.069,-0.63 0.21,-0.768 0.419,-1.537 0.699,-2.304 0.698,-1.956 -6.146,-4.121 -9.987,-1.188 -1.326,0.978 -2.025,8.66 -2.025,21.999 0,10.963 2.444,20.67 3.771,21.019 8.032,2.166 12.71,-1.605 10.196,-9.008 -1.467,-4.19 -2.793,-8.45 -3.561,-12.919 3.072,8.31 8.17,15.992 12.29,18.017 C -1.467,19.764 3.841,14.944 2.305,6.425 2.234,6.285 2.165,5.936 2.165,5.866 2.095,5.168 1.456,3.006 1.676,3.701 1.032,1.66 0.562,0.875 0,0" /></g><g
           transform="translate(158.2715,71.585)"
           id="g3401"><path
             id="path3403"
             style="fill:#231f20;fill-opacity:1;fill-rule:nonzero;stroke:none"
             d="M 0,0 C -2.234,3.283 -10.405,-0.698 -15.153,-17.808 -3.212,-12.151 1.537,-2.375 0,0 m -30.168,-53.634 c -0.279,4.401 -0.279,9.359 -0.21,14.457 0,0.628 0.07,1.257 0.07,1.815 -4.19,1.886 -8.31,-4.539 -9.358,-13.408 -1.187,-10.406 3.492,-15.922 6.145,-13.409 2.026,2.026 3.074,8.45 3.353,10.545 m 13.688,30.309 c -0.559,-2.863 -1.048,-6.006 -1.397,-9.358 -1.327,-12.5 -0.769,-23.604 0.768,-28.562 0.908,-2.654 4.33,-6.146 7.612,-2.515 3.561,3.982 7.473,1.677 2.724,-3.002 -2.933,-2.863 -8.38,-4.818 -13.828,-4.259 -3.911,0.488 -6.285,3.001 -7.682,6.842 -0.558,-1.117 -1.187,-2.094 -1.954,-2.862 -2.655,-2.724 -5.867,-4.261 -9.987,-3.841 -8.311,0.907 -13.199,9.846 -10.895,22.556 2.444,13.409 14.177,18.297 20.951,14.736 0.14,1.675 0.279,3.352 0.419,5.098 0.069,0.348 0.069,0.698 0.14,1.047 -1.955,-0.419 -4.051,-0.838 -6.216,-1.187 -30.029,-4.958 -19.694,19.344 -12.361,25.699 8.311,7.123 9.219,2.305 6.635,0.698 -4.609,-2.932 -6.635,-19.763 6.565,-19.763 2.165,0 4.189,0.14 6.215,0.349 4.12,22.767 16.621,33.8 26.747,30.17 C 9.219,4.47 8.032,-13.268 -16.48,-23.325" /></g></g></g></g></svg>